<svg xmlns="http://www.w3.org/2000/svg" width="800" height="500" viewBox="0 0 800 500">
  <defs>
    <linearGradient id="bg" x1="0%" y1="0%" x2="100%" y2="100%">
      <stop offset="0%" stop-color="#1a5c2a"/>
      <stop offset="100%" stop-color="#2e7d32"/>
    </linearGradient>
  </defs>
  <rect width="800" height="500" fill="url(#bg)"/>
  <!-- Gardens/marina skyline motif -->
  <rect x="100" y="260" width="35" height="70" rx="3" fill="#fff" opacity="0.12"/>
  <rect x="150" y="200" width="20" height="130" rx="3" fill="#fff" opacity="0.16"/>
  <rect x="185" y="280" width="45" height="50" rx="3" fill="#fff" opacity="0.1"/>
  <rect x="260" y="180" width="15" height="150" rx="3" fill="#fff" opacity="0.18"/>
  <circle cx="267" cy="175" r="10" fill="#fff" opacity="0.12"/>
  <rect x="320" y="240" width="25" height="90" rx="3" fill="#fff" opacity="0.14"/>
  <rect x="400" y="140" width="12" height="190" rx="3" fill="#fff" opacity="0.2"/>
  <rect x="470" y="260" width="30" height="70" rx="3" fill="#fff" opacity="0.12"/>
  <rect x="520" y="220" width="22" height="110" rx="3" fill="#fff" opacity="0.15"/>
  <rect x="560" y="270" width="40" height="60" rx="3" fill="#fff" opacity="0.1"/>
  <!-- Flower/garden motif -->
  <circle cx="400" cy="340" r="8" fill="#fff" opacity="0.08"/>
  <circle cx="390" cy="330" r="6" fill="#fff" opacity="0.06"/>
  <circle cx="410" cy="330" r="6" fill="#fff" opacity="0.06"/>
  <circle cx="400" cy="330" r="4" fill="#ffd700" opacity="0.15"/>
  <text x="400" y="400" text-anchor="middle" font-family="system-ui,sans-serif" font-size="42" font-weight="700" fill="white">Singapore</text>
  <text x="400" y="440" text-anchor="middle" font-family="system-ui,sans-serif" font-size="22" fill="white" opacity="0.6">Singapore</text>
</svg>
